<svg width="192" height="192" viewBox="0 0 192 192" xmlns="http://www.w3.org/2000/svg"><defs><linearGradient id="winterCampIce" x1="28" y1="20" x2="160" y2="172" gradientUnits="userSpaceOnUse"><stop offset="0" stop-color="#f8ffff"/><stop offset=".26" stop-color="#bff0ff"/><stop offset=".58" stop-color="#5fb9ea"/><stop offset="1" stop-color="#1d5f9a"/></linearGradient><linearGradient id="winterCampDarkIce" x1="78" y1="26" x2="115" y2="166" gradientUnits="userSpaceOnUse"><stop offset="0" stop-color="#2f8cd0"/><stop offset=".58" stop-color="#155ca1"/><stop offset="1" stop-color="#0c2d64"/></linearGradient><radialGradient id="winterCampCore" cx="46%" cy="40%" r="62%"><stop offset="0" stop-color="#ffffff"/><stop offset=".45" stop-color="#caefff"/><stop offset="1" stop-color="#50aee5"/></radialGradient><filter id="winterCampGlow" x="-30%" y="-30%" width="160%" height="160%"><feGaussianBlur stdDeviation="3.2" result="blur"/><feFlood flood-color="#9eeaff" flood-opacity=".45" result="color"/><feComposite in="color" in2="blur" operator="in" result="glow"/><feMerge><feMergeNode in="glow"/><feMergeNode in="SourceGraphic"/></feMerge></filter><style> .outline{fill:none;stroke:#1d284b;stroke-width:12;stroke-linecap:round;stroke-linejoin:round} .arm{fill:none;stroke:url(#winterCampIce);stroke-width:8;stroke-linecap:round;stroke-linejoin:round} .deep{fill:none;stroke:url(#winterCampDarkIce);stroke-width:4;stroke-linecap:round;stroke-linejoin:round;opacity:.9} .tip{fill:#bff0ff;stroke:#1d284b;stroke-width:5;stroke-linejoin:round} .shine{fill:none;stroke:#ffffff;stroke-width:3;stroke-linecap:round;opacity:.55} .spark{fill:none;stroke:#ffffff;stroke-width:2;stroke-linecap:round;opacity:.75} </style></defs><g filter="url(#winterCampGlow)"><g transform="translate(96 96) scale(0.85)"><g id="flake-arm"><path class="outline" d="M0 -16 L0 -70"/><path class="outline" d="M0 -46 L-20 -64"/><path class="outline" d="M0 -46 L20 -64"/><path class="outline" d="M0 -28 L-15 -42"/><path class="outline" d="M0 -28 L15 -42"/><path class="tip" d="M0 -86 L13 -72 L0 -58 L-13 -72 Z"/><path class="arm" d="M0 -16 L0 -70"/><path class="arm" d="M0 -46 L-20 -64"/><path class="arm" d="M0 -46 L20 -64"/><path class="arm" d="M0 -28 L-15 -42"/><path class="arm" d="M0 -28 L15 -42"/><path class="deep" d="M0 -20 L0 -65"/><path class="deep" d="M0 -45 L-17 -60"/><path class="deep" d="M0 -45 L17 -60"/><path class="shine" d="M-4 -64 L-4 -34"/></g><use href="#flake-arm" transform="rotate(60)"/><use href="#flake-arm" transform="rotate(120)"/><use href="#flake-arm" transform="rotate(180)"/><use href="#flake-arm" transform="rotate(240)"/><use href="#flake-arm" transform="rotate(300)"/><circle cx="0" cy="0" r="23" fill="#1d284b"/><circle cx="0" cy="0" r="17" fill="url(#winterCampCore)"/><path d="M-12 -2 C-5 -11 8 -11 14 -3 C7 -6 -4 -5 -12 -2Z" fill="#ffffff" opacity=".58"/><path class="spark" d="M-6 10 L6 10 M0 4 L0 16"/><path class="spark" d="M38 -47 L46 -47 M42 -51 L42 -43"/><path class="spark" d="M-55 30 L-45 30 M-50 25 L-50 35"/><path class="spark" d="M47 42 L55 42 M51 38 L51 46"/></g></g></svg>