<?xml version="1.0" encoding="utf-8"?>
<svg width="94" height="30" viewBox="0 0 126 40" xmlns="http://www.w3.org/2000/svg">
  <defs>
    <linearGradient id="spaceBubbleWeaponGlass" x1="0%" y1="0%" x2="100%" y2="100%">
      <stop offset="0%" stop-color="#f4ecff" stop-opacity="0.82"/>
      <stop offset="32%" stop-color="#9aa3bf" stop-opacity="0.64"/>
      <stop offset="65%" stop-color="#322b43" stop-opacity="0.86"/>
      <stop offset="100%" stop-color="#080711" stop-opacity="1"/>
    </linearGradient>
    <radialGradient id="spaceBubbleWeaponHot" cx="35%" cy="26%" r="76%">
      <stop offset="0%" stop-color="#fff4d6" stop-opacity="0.86"/>
      <stop offset="38%" stop-color="#b08f88" stop-opacity="0.64"/>
      <stop offset="75%" stop-color="#2c263a" stop-opacity="0.88"/>
      <stop offset="100%" stop-color="#080711" stop-opacity="1"/>
    </radialGradient>

    <style>
      .outer{fill:url(#spaceBubbleWeaponGlass);stroke:#151622;stroke-miterlimit:10;stroke-width:8px}
      .core{fill:url(#spaceBubbleWeaponHot)}
      .hot{fill:url(#spaceBubbleWeaponHot)}
      .cool{fill:url(#spaceBubbleWeaponGlass)}
    </style>
  </defs>
  <circle class="outer" cx="44.28" cy="16.13" r="9.5"/>
  <circle class="outer" cx="80.72" cy="16.04" r="9.5"/>
  <circle class="core" cx="44.28" cy="16.13" r="6.4"/>
  <circle class="core" cx="80.72" cy="16.04" r="6.4"/>
  <path class="hot" d="M40.1 13.2c2.2-1.4 5.3-1.3 7.6.3-1.7-.4-3.6-.3-5.1.4-1 .5-1.8.9-2.5.7-.6-.2-.6-.9 0-1.4Z"/>
  <path class="hot" d="M76.5 13.1c2.3-1.4 5.5-1.2 7.8.4-1.8-.4-3.7-.3-5.2.4-1 .5-1.9.9-2.6.7-.6-.2-.6-1 0-1.5Z"/>
  <path class="cool" d="M48.4 19.4c-2.2 2-6.1 1.9-8.2-.2 2.9.8 5.5.7 8.2.2Z"/>
  <path class="cool" d="M84.8 19.3c-2.2 2-6.1 1.9-8.2-.2 2.9.8 5.5.7 8.2.2Z"/>

  
  <g class="space-bubble-weapon-detail" opacity="0.82">
    <ellipse cx="68.04" cy="16.80" rx="28.98" ry="8.00" fill="#f3ecff" opacity="0.16"/>
    <path d="M52.10 13.20 C65.72 8.40 83.69 12.40 87.75 16.00" fill="none" stroke="#fff3d6" stroke-width="1.76" stroke-linecap="round" opacity="0.62"/>
    <circle cx="80.50" cy="12.40" r="1.26" fill="#ffffff" opacity="0.55"/>
    <circle cx="59.93" cy="20.16" r="0.88" fill="#d7e8ff" opacity="0.38"/>
  </g>
</svg>