<svg filter="url(#bansheeBlueOutline)" width="96" height="96" xmlns="http://www.w3.org/2000/svg" viewBox="0 0 138 138"><defs><radialGradient id="meleetowert1baseGrad1" cx="34%" cy="28%" r="80%"><stop offset="0" stop-color="#9f8170"/><stop offset=".52" stop-color="#845e48"/><stop offset="1" stop-color="#64493a"/></radialGradient><filter id="bansheeBlueOutline" x="-28%" y="-28%" width="156%" height="156%"><feDropShadow dx="0" dy="0" stdDeviation="1.15" flood-color="#66d8ff" flood-opacity="0.48"/><feDropShadow dx="0" dy="0" stdDeviation="0.35" flood-color="#ecfbff" flood-opacity="0.5"/></filter><style>.cls-1{fill:url(#meleetowert1baseGrad1);stroke:#333;stroke-miterlimit:10;stroke-width:10px;}</style></defs><rect class="cls-1" x="1449" y="936" width="128" height="128" rx="10.5" ry="10.5" transform="translate(1069 -1444) rotate(90)"/><g id="banshee-forged-base" opacity="0.76"><path d="M25 69 L69 25 L113 69 L69 113 Z" fill="none" stroke="#66d8ff" stroke-width="3.5" stroke-linejoin="round"/><circle cx="69" cy="69" r="35" fill="none" stroke="#ecfbff" stroke-width="2.4" opacity="0.7"/><path d="M35 69 H103 M69 35 V103" fill="none" stroke="#284957" stroke-width="5" stroke-linecap="round" opacity="0.8"/><path d="M35 69 H103 M69 35 V103" fill="none" stroke="#b9efff" stroke-width="1.8" stroke-linecap="round" opacity="0.72"/><circle cx="43" cy="43" r="4.5" fill="#b9efff" stroke="#23333b" stroke-width="2"/><circle cx="95" cy="43" r="4.5" fill="#b9efff" stroke="#23333b" stroke-width="2"/><circle cx="43" cy="95" r="4.5" fill="#b9efff" stroke="#23333b" stroke-width="2"/><circle cx="95" cy="95" r="4.5" fill="#b9efff" stroke="#23333b" stroke-width="2"/></g><g id="banshee-violet-outline" opacity="0.68"><path d="M21 69 L69 21 L117 69 L69 117 Z" fill="none" stroke="#2b245c" stroke-width="5.2" stroke-linejoin="round"/><path d="M25 69 L69 25 L113 69 L69 113 Z" fill="none" stroke="#5e93d4" stroke-width="2.2" stroke-linejoin="round"/><circle cx="69" cy="69" r="42" fill="none" stroke="#352b70" stroke-width="3.2" opacity="0.82"/></g></svg>