<svg width="100" height="40" viewBox="0 0 200 80" xmlns="http://www.w3.org/2000/svg"><defs><linearGradient id="handle" x1="0%" y1="0%" x2="100%" y2="100%"><stop offset="0" stop-color="#d7eef7"/><stop offset="1" stop-color="#596b85"/></linearGradient><radialGradient id="head" cx="36%" cy="24%" r="78%"><stop offset="0" stop-color="#ffffff"/><stop offset=".55" stop-color="#9ed2e8"/><stop offset="1" stop-color="#40506c"/></radialGradient><style>.h{fill:url(#handle);stroke:#1e263d;stroke-miterlimit:10;stroke-width:8px;}.blade{fill:url(#head);stroke:#1e263d;stroke-miterlimit:10;stroke-width:8px;}.hand{fill:#9ed2e8;stroke:#1e263d;stroke-miterlimit:10;stroke-width:8px;}</style></defs><rect class="h" x="54.778" y="32.461" width="118" height="5" rx="1.33" ry="1.33"/><path class="blade" d="M 181.876 27.466 C 178.206 25.986 170.876 21.466 178.086 10.746 C 179.895 7.956 178.005 4.253 174.684 4.082 C 174.605 4.078 174.525 4.076 174.446 4.076 L 155.996 4.076 C 152.67 4.093 150.61 7.703 152.286 10.574 C 152.343 10.671 152.402 10.765 152.466 10.856 C 159.846 21.786 152.466 26.106 148.646 27.506 C 147.762 27.823 147.476 28.931 148.096 29.636 L 164.196 47.946 C 164.726 48.55 165.666 48.55 166.196 47.946 L 182.406 29.586 C 183.017 28.888 182.744 27.795 181.876 27.466 Z" transform="matrix(-1, 0, 0, -1, 330.492981, 52.626003)"/><circle class="hand" cx="97.62" cy="81.21" r="11.31" transform="matrix(-0.060352, 0.998177, -0.998177, -0.060352, 165.647532, -50.548778)"/><circle class="hand" cx="54.26" cy="81.33" r="11.31" transform="matrix(-0.060352, 0.998178, -0.998177, -0.060352, 206.517502, -7.398876)"/></svg>