<svg width="52" height="52" xmlns="http://www.w3.org/2000/svg" viewBox="-8 -5 73.58 70.58"><defs><radialGradient id="body" cx="32%" cy="28%" r="78%"><stop offset="0" stop-color="#d9c3ff"/><stop offset=".25" stop-color="#6e579f"/><stop offset=".58" stop-color="#201b3b"/><stop offset="1" stop-color="#05050d"/></radialGradient><style>.base{fill:url(#body);stroke:#070711;stroke-miterlimit:10;stroke-width:8px;}.horn{fill:#6e579f;stroke:#070711;stroke-width:3.2;stroke-linejoin:round;}.detail{opacity:.8}</style></defs><circle class="base" cx="29.62" cy="32.9" r="24.79" transform="translate(-5.84 56.37) rotate(-86.54)"/><path class="horn" d="M 1.107 57.359 C 18.867 53.059 22.667 44.059 23.357 39.139 C 23.487 38.241 24.542 37.82 25.255 38.382 C 25.373 38.475 25.472 38.59 25.547 38.719 C 29.207 44.809 34.137 59.199 10.547 72.179 C 9.006 73.02 7.084 72.627 5.997 71.249 L -0.763 62.699 C -2.273 60.77 -1.277 57.925 1.107 57.359 Z" transform="matrix(-0.750000, 0, 0, -0.750000, 20.298001, 83.129996)"/><path class="horn" d="M 86.865 56.961 C 69.095 52.671 65.305 43.671 64.585 38.751 C 64.454 37.852 63.4 37.431 62.686 37.994 C 62.569 38.087 62.47 38.201 62.395 38.331 C 58.735 44.421 53.805 58.811 77.395 71.791 C 78.935 72.632 80.857 72.239 81.945 70.861 L 88.705 62.311 C 90.225 60.39 89.245 57.54 86.865 56.961 Z" transform="matrix(-0.750000, 0, 0, -0.750000, 104.422498, 82.547257)"/></svg>