<?xml version="1.0" encoding="utf-8"?><svg width="37" height="36" viewBox="0 0 54 52" xmlns="http://www.w3.org/2000/svg"><defs><radialGradient id="harvesterT2ClawCarry" cx="28%" cy="20%" r="86%"><stop offset="0" stop-color="#838383"/><stop offset=".55" stop-color="#666666"/><stop offset="1" stop-color="#4d4d4d"/></radialGradient><style>.claw{fill:url(#harvesterT2ClawCarry);stroke:#333;stroke-miterlimit:10;stroke-width:5px;stroke-linejoin:round;stroke-linecap:round;}</style></defs><path class="claw" d="M 47 20 C 41 9 29 6 18 11 C 7 16 4 30 12 40 C 20 49 34 48 43 38 L 37 32 C 31 37 23 37 18 32 C 14 28 16 22 22 19 C 28 16 35 18 38 24 L 31 28 C 28 25 25 25 23 28 C 21 31 24 34 28 34 C 32 35 36 32 38 29 Z"/></svg>