<svg width="34" height="34" viewBox="0 0 34 34" xmlns="http://www.w3.org/2000/svg"><path d="M17 2 C23 2 25 7 29 10 C34 13 33 21 28 24 C27 31 19 34 16 29 C11 34 3 30 5 23 C0 19 2 11 8 10 C10 5 13 2 17 2 Z" fill="#496b35" stroke="#333" stroke-width="3" stroke-linejoin="round"/><path d="M17 9 C21 9 23 12 25 15 C29 17 28 22 24 24 C23 28 18 29 16 25 C12 29 7 26 9 21 C6 18 8 13 12 13 C13 10 15 9 17 9 Z" fill="#5d873e"/><path d="M17 15 C21 15 23 18 23 21 C23 25 20 27 17 27 C13 27 11 25 11 21 C11 18 13 15 17 15 Z" fill="#6ca348"/></svg>