<?xml version="1.0" encoding="utf-8"?><svg width="37" height="36" viewBox="0 0 54 52" xmlns="http://www.w3.org/2000/svg"><defs><radialGradient id="harvesterT4ClawGrab" cx="28%" cy="20%" r="86%"><stop offset="0" stop-color="#eeeeee"/><stop offset=".55" stop-color="#cccccc"/><stop offset="1" stop-color="#969696"/></radialGradient><style>.claw{fill:url(#harvesterT4ClawGrab);stroke:#333;stroke-miterlimit:10;stroke-width:5px;stroke-linejoin:round;stroke-linecap:round;}</style></defs><path class="claw" d="M 48 18 C 42 8 29 5 18 10 C 7 15 4 30 12 40 C 20 50 34 49 43 39 L 37 33 C 31 38 22 38 18 32 C 15 27 17 21 23 18 C 29 15 36 17 40 23 L 32 27 C 29 24 25 24 23 27 C 21 30 23 34 27 35 C 32 36 36 33 39 29 Z"/></svg>