<?xml version="1.0" encoding="utf-8"?><svg width="96" height="88" viewBox="0 -13 140 128" xmlns="http://www.w3.org/2000/svg"><defs><radialGradient id="harvesterT3Color" cx="32%" cy="26%" r="82%"><stop offset="0" stop-color="#dfba87"/><stop offset=".54" stop-color="#c69c6d"/><stop offset="1" stop-color="#9b7651"/></radialGradient><radialGradient id="harvesterT3Metal" cx="34%" cy="28%" r="78%"><stop offset="0" stop-color="#ededed"/><stop offset=".55" stop-color="#cccccc"/><stop offset="1" stop-color="#9a9a9a"/></radialGradient><style>.cls-1{fill:url(#harvesterT3Color);stroke-width:8px;}.cls-1,.cls-2,.cls-3{stroke:#333;stroke-miterlimit:10;}.cls-2{fill:url(#harvesterT3Metal);stroke-width:6px;}.cls-3{fill:url(#harvesterT3Color);stroke-width:9px;}</style></defs><rect class="cls-2" x="55.855" y="25.921" width="26.5" height="13.51" rx="6.76" ry="6.76"/><rect class="cls-2" x="55.855" y="63.031" width="26.5" height="13.51" rx="6.76" ry="6.76"/><rect class="cls-3" x="6" y="-8" width="54" height="118" rx="16.5" ry="16.5"/><path class="cls-1" d="M 135 50.98 C 135 75.853 117.123 96 95.061 96 C 73 96 76.052 77.624 76.052 52.761 C 76.052 27.898 73.02 6 95.061 6 C 117.102 6 135 26.117 135 50.98 Z"/><circle class="cls-2" cx="496.84" cy="513.01" r="18.79" transform="matrix(0.7092, -0.705005, 0.705006, 0.709202, -609.461121, 36.664059)"/><circle class="cls-3" cx="496.84" cy="513.01" r="8.1" transform="matrix(0.709203, -0.705006, 0.705005, 0.709202, -609.579895, 36.664658)"/></svg>