<?xml version="1.0" encoding="utf-8"?>
<svg width="150" height="43" viewBox="0 0 240 72" xmlns="http://www.w3.org/2000/svg">
  <defs>
    <linearGradient id="spaceBubbleWeaponGlass" x1="0%" y1="0%" x2="100%" y2="100%">
      <stop offset="0%" stop-color="#f4ecff" stop-opacity="0.82"/>
      <stop offset="32%" stop-color="#9aa3bf" stop-opacity="0.64"/>
      <stop offset="65%" stop-color="#322b43" stop-opacity="0.86"/>
      <stop offset="100%" stop-color="#080711" stop-opacity="1"/>
    </linearGradient>
    <radialGradient id="spaceBubbleWeaponHot" cx="35%" cy="26%" r="76%">
      <stop offset="0%" stop-color="#dceffe" stop-opacity="0.86"/>
      <stop offset="38%" stop-color="#87a1b6" stop-opacity="0.64"/>
      <stop offset="75%" stop-color="#2c263a" stop-opacity="0.88"/>
      <stop offset="100%" stop-color="#080711" stop-opacity="1"/>
    </radialGradient>
<linearGradient id="bloodAxeGradient" x1="0%" y1="0%" x2="100%" y2="100%"><stop offset="0%" stop-color="#595471"/><stop offset="45%" stop-color="#b9b1c9"/><stop offset="100%" stop-color="#1a1a28"/></linearGradient>
    <style>.cls-1{fill:url(#spaceBubbleWeaponGlass);}.cls-1,.cls-2,.cls-3{stroke:#151622;stroke-miterlimit:10;stroke-width:8px;}.cls-2{fill:url(#spaceBubbleWeaponGlass);}.cls-3{fill:url(#spaceBubbleWeaponHot);}</style>
    <style>.cls-1{fill:url(#spaceBubbleWeaponGlass);}.cls-1,.cls-2,.cls-3{stroke:#151622;stroke-miterlimit:10;stroke-width:8px;}.cls-2{fill:url(#spaceBubbleWeaponGlass);}.cls-3{fill:url(#spaceBubbleWeaponHot);}</style>
  </defs>
  <g id="g-1" transform="matrix(1, 0, 0, 1, 67.88221, 5.502494)">
    <rect class="cls-1" x="4" y="20.59" width="118.19" height="10.83" rx="4.03" ry="4.03"/>
    <polygon class="cls-2" style="fill:url(#spaceBubbleWeaponGlass)" points="130.2 4.43 137.56 7.94 145.25 10.66 147.97 18.35 151.48 25.71 147.97 33.07 145.25 40.76 137.56 43.48 130.2 46.99 122.84 43.48 115.15 40.76 112.43 33.07 108.92 25.71 112.43 18.35 115.15 10.66 122.84 7.94 130.2 4.43"/>
    <circle class="cls-3" cx="13.66" cy="44.29" r="13.25" transform="translate(-18.19 41.68) rotate(-86.54)"/>
    <circle class="cls-3" cx="64.47" cy="44.14" r="13.25" transform="translate(29.7 92.26) rotate(-86.54)"/>
  </g>

  
  <g class="space-bubble-weapon-detail" opacity="0.82">
    <ellipse cx="129.60" cy="30.24" rx="55.20" ry="14.40" fill="#f3ecff" opacity="0.16"/>
    <path d="M99.24 23.76 C125.18 15.12 159.41 22.32 167.14 28.80" fill="none" stroke="#dceffe" stroke-width="3.36" stroke-linecap="round" opacity="0.62"/>
    <circle cx="153.34" cy="22.32" r="2.40" fill="#ffffff" opacity="0.55"/>
    <circle cx="114.14" cy="36.29" r="1.68" fill="#d7e8ff" opacity="0.38"/>
  </g>
</svg>