<?xml version="1.0" encoding="utf-8"?>
<svg width="126" height="41" viewBox="-22 -10 170 54" xmlns="http://www.w3.org/2000/svg">
  <defs>
    <linearGradient id="spaceBubbleWeaponGlass" x1="0%" y1="0%" x2="100%" y2="100%">
      <stop offset="0%" stop-color="#f4ecff" stop-opacity="0.82"/>
      <stop offset="32%" stop-color="#9aa3bf" stop-opacity="0.64"/>
      <stop offset="65%" stop-color="#322b43" stop-opacity="0.86"/>
      <stop offset="100%" stop-color="#080711" stop-opacity="1"/>
    </linearGradient>
    <radialGradient id="spaceBubbleWeaponHot" cx="35%" cy="26%" r="76%">
      <stop offset="0%" stop-color="#dceffe" stop-opacity="0.86"/>
      <stop offset="38%" stop-color="#87a1b6" stop-opacity="0.64"/>
      <stop offset="75%" stop-color="#2c263a" stop-opacity="0.88"/>
      <stop offset="100%" stop-color="#080711" stop-opacity="1"/>
    </radialGradient>

    <style>.cls-1{fill:url(#spaceBubbleWeaponGlass);}.cls-1,.cls-2,.cls-3{stroke:#151622;stroke-miterlimit:10;stroke-width:8px;}.cls-2{fill:url(#spaceBubbleWeaponGlass);}.cls-3{fill:url(#spaceBubbleWeaponHot);}</style>
    <style>.cls-1{fill:url(#spaceBubbleWeaponGlass);}.cls-1,.cls-2,.cls-3{stroke:#151622;stroke-miterlimit:10;stroke-width:8px;}.cls-2{fill:url(#spaceBubbleWeaponGlass);}.cls-3{fill:url(#spaceBubbleWeaponHot);}</style>
  </defs>
  <g id="weapons" transform="matrix(1, 0, 0, 1, 29.984173, -6.330401)">
    <rect class="cls-1" x="58.6" y="40.43" width="36.24" height="14.73" rx="4.33" ry="4.33" transform="translate(22.85 98.84) rotate(-90)"/>
    <rect class="cls-2" x="4" y="18.16" width="65.24" height="8.07" rx="4.03" ry="4.03"/>
    <path class="cls-1" d="M108.31,40h-20a4.26,4.26,0,0,0-2.46.78l-5.3,3.74a4.26,4.26,0,0,0,0,7l5.3,3.74a4.26,4.26,0,0,0,2.46.78h20a4.26,4.26,0,0,0,2.46-.78l5.3-3.74a4.26,4.26,0,0,0,0-7l-5.3-3.74A4.26,4.26,0,0,0,108.31,40Z" transform="translate(-6.08 -25.68)"/>
    <circle class="cls-3" cx="20.72" cy="51.09" r="9.5" transform="translate(-37.61 43.01) rotate(-86.54)"/>
    <circle class="cls-3" cx="57.14" cy="50.99" r="9.5" transform="translate(-3.28 79.27) rotate(-86.54)"/>
  </g>

  
  <g class="space-bubble-weapon-detail" opacity="0.82">
    <ellipse cx="69.80" cy="12.68" rx="39.10" ry="10.80" fill="#f3ecff" opacity="0.16"/>
    <path d="M48.30 7.82 C66.67 1.34 90.91 6.74 96.39 11.60" fill="none" stroke="#dceffe" stroke-width="2.38" stroke-linecap="round" opacity="0.62"/>
    <circle cx="86.61" cy="6.74" r="1.70" fill="#ffffff" opacity="0.55"/>
    <circle cx="58.85" cy="17.22" r="1.19" fill="#d7e8ff" opacity="0.38"/>
  </g>
</svg>