<svg width="120" height="120" viewBox="0 0 120 120" xmlns="http://www.w3.org/2000/svg"><svg x="14" y="14" width="92" height="92" viewBox="0 0 138 138"><defs><radialGradient id="cannonBase__cannontowert1baseGrad1" cx="34%" cy="28%" r="80%"><stop offset="0" stop-color="#9f8170"/><stop offset=".52" stop-color="#845e48"/><stop offset="1" stop-color="#64493a"/></radialGradient><radialGradient id="cannonBase__cannontowert1baseGrad2" cx="34%" cy="28%" r="80%"><stop offset="0" stop-color="#7e7e7e"/><stop offset=".52" stop-color="#666666"/><stop offset="1" stop-color="#585858"/></radialGradient><style>.cannonBase__cls-1{fill:url(#cannonBase__cannontowert1baseGrad1);stroke-width:10px;}.cannonBase__cls-1,.cannonBase__cls-2{stroke:#333;stroke-miterlimit:10;}.cannonBase__cls-2{fill:url(#cannonBase__cannontowert1baseGrad2);stroke-width:8px;}</style></defs><rect class="cannonBase__cls-1" x="58" y="57" width="128" height="128" rx="10.5" ry="10.5" transform="translate(190 -53) rotate(90)"/><circle class="cannonBase__cls-2" cx="122.52" cy="121.5" r="53.48" transform="translate(-59.15 184.46) rotate(-86.54)"/></svg><svg x="2" y="26" width="116" height="76" viewBox="0 0 176 114.97"><defs><linearGradient id="cannonHead__cannonT1Cap" x1="0" y1="0" x2="1" y2="1"><stop offset="0" stop-color="#9f8170"/><stop offset=".55" stop-color="#845e48"/><stop offset="1" stop-color="#64493a"/></linearGradient><linearGradient id="cannonHead__cannonT1Barrel" x1="0" y1="0" x2="1" y2="1"><stop offset="0" stop-color="#777"/><stop offset=".55" stop-color="#666"/><stop offset="1" stop-color="#555"/></linearGradient><style>.cannonHead__cls-1,.cannonHead__cls-3,.cannonHead__cls-4{fill:url(#cannonHead__cannonT1Barrel);}.cannonHead__cls-1,.cannonHead__cls-2,.cannonHead__cls-3{stroke:#333;stroke-miterlimit:10;}.cannonHead__cls-1{stroke-width:8px;}.cannonHead__cls-2{fill:url(#cannonHead__cannonT1Cap);}.cannonHead__cls-2,.cannonHead__cls-3{stroke-width:10px;}</style></defs><circle class="cannonHead__cls-1" cx="17.52" cy="16.5" r="53.48" transform="translate(71.99 73.97) rotate(-86.54)"/><rect class="cannonHead__cls-2" x="77" y="69.99" width="31" height="31" rx="15.5" ry="15.5"/><rect class="cannonHead__cls-2" x="77" y="15.99" width="31" height="31" rx="15.5" ry="15.5"/><path class="cannonHead__cls-3" d="M73,39.09-21.8,47.76c-5.5.5-10.19-5-10.19-11.87V-3C-32-9.94-27.3-15.4-21.8-14.9L73-6.23c5,.45,8.81,5.63,8.81,11.87V27.22C81.78,33.46,77.94,38.64,73,39.09Z" transform="translate(72 40.99)"/><path class="cannonHead__cls-3" d="M-39.54-6.23l11.61-8.67c.67-.5,1.25,5,1.25,11.87V35.89c0,6.91-.57,12.37-1.25,11.87l-11.61-8.67c-.61-.45-1.08-5.63-1.08-11.87V5.64C-40.62-.6-40.15-5.78-39.54-6.23Z" transform="translate(72 40.99)"/><rect class="cannonHead__cls-4" x="38.35" y="31.4" width="19.1" height="52.04" rx="8.87" ry="8.87"/><rect class="cannonHead__cls-3" x="148" y="29.99" width="23" height="54" rx="8" ry="8"/><circle class="cannonHead__cls-3" cx="16.5" cy="57.49" r="11.5"/></svg></svg>
