<svg filter="url(#bansheeBlueOutline)" width="120" height="120" xmlns="http://www.w3.org/2000/svg" viewBox="0 0 166.17 155.33"><defs><filter id="bansheeBlueOutline" x="-28%" y="-28%" width="156%" height="156%"><feDropShadow dx="0" dy="0" stdDeviation="1.15" flood-color="#41f384" flood-opacity="0.48"/><feDropShadow dx="0" dy="0" stdDeviation="0.35" flood-color="#dcffe7" flood-opacity="0.5"/></filter><radialGradient id="arrowT8HeadColor" cx="34%" cy="28%" r="80%"><stop offset="0" stop-color="#9dffc4"/><stop offset=".5" stop-color="#41f384"/><stop offset="1" stop-color="#188a4b"/></radialGradient><radialGradient id="arrowT8HeadMetal" cx="35%" cy="30%" r="76%"><stop offset="0" stop-color="#8d928f"/><stop offset=".52" stop-color="#6d6d6d"/><stop offset="1" stop-color="#505852"/></radialGradient><style>.cls-1,.cls-2,.cls-4,.cls-5{fill:url(#arrowT8HeadColor);}.cls-2,.cls-3,.cls-4,.cls-5{stroke:#333;stroke-miterlimit:10;}.cls-2,.cls-3{stroke-width:8px;}.cls-3{fill:url(#arrowT8HeadMetal);}.cls-4{stroke-width:5px;}.cls-5{stroke-width:10px;}</style></defs><rect class="cls-1" x="17.04" y="27.15" width="84.79" height="4.48" rx="2.24" ry="2.24" transform="translate(15.79 64.16) rotate(-45)"/><rect class="cls-1" x="16.04" y="96.15" width="84.79" height="4.48" rx="2.24" ry="2.24" transform="translate(105.86 1.02) rotate(45)"/><rect class="cls-2" x="68.3" y="87.96" width="79.88" height="22.2" rx="8.76" ry="8.76" transform="translate(-3.62 178.62) rotate(-69.21)"/><rect class="cls-2" x="68.55" y="17.95" width="79.88" height="22.72" rx="8.76" ry="8.76" transform="translate(116.56 -68.99) rotate(69.21)"/><rect class="cls-3" x="44.17" y="59.52" width="118" height="37" rx="4.33" ry="4.33"/><rect class="cls-4" x="47.67" y="72.02" width="111" height="11"/><path class="cls-5" d="M26.7,47V82c0,9.12-4.94,15.79-10,13.55L-8.1,84.67c-3.57-1.57-6.07-7.15-6.07-13.55V57.88c0-6.4,2.5-12,6.07-13.55L16.67,33.42C21.76,31.18,26.7,37.85,26.7,47Z" transform="translate(19.17 13.52)"/><g id="banshee-forged-arrow" opacity="0.82"><path d="M45 66 H145 M45 86 H145" fill="none" stroke="#3b3b42" stroke-width="6" stroke-linecap="round"/><path d="M45 66 H145 M45 86 H145" fill="none" stroke="#9a9aa3" stroke-width="2.2" stroke-linecap="round"/><path d="M82 53 L118 99 M118 53 L82 99" fill="none" stroke="#41f384" stroke-width="3.2" stroke-linecap="round"/><path d="M126 55 L153 76 L126 98" fill="none" stroke="#dcffe7" stroke-width="3.6" stroke-linecap="round" stroke-linejoin="round"/><path d="M58 56 L72 76 L58 96" fill="none" stroke="#39b86b" stroke-width="4" stroke-linecap="round" stroke-linejoin="round"/><circle cx="60" cy="76" r="5.2" fill="#b8ffd4" stroke="#173225" stroke-width="2"/><circle cx="137" cy="76" r="5.2" fill="#b8ffd4" stroke="#173225" stroke-width="2"/></g><g id="banshee-violet-outline" opacity="0.62"><path d="M42 76 H153" fill="none" stroke="#17633a" stroke-width="7" stroke-linecap="round"/></g></svg>