<svg filter="url(#bansheeBlueOutline)" width="120" height="120" xmlns="http://www.w3.org/2000/svg" viewBox="0 0 166.17 151.83"><defs><filter id="bansheeBlueOutline" x="-28%" y="-28%" width="156%" height="156%"><feDropShadow dx="0" dy="0" stdDeviation="1.15" flood-color="#3b3b42" flood-opacity="0.42"/><feDropShadow dx="0" dy="0" stdDeviation="0.35" flood-color="#9a9aa3" flood-opacity="0.32"/></filter><radialGradient id="arrowT1HeadColor" cx="34%" cy="28%" r="80%"><stop offset="0" stop-color="#bd8d6d"/><stop offset=".5" stop-color="#8d6750"/><stop offset="1" stop-color="#5b4234"/></radialGradient><radialGradient id="arrowT1HeadMetal" cx="35%" cy="30%" r="76%"><stop offset="0" stop-color="#929292"/><stop offset=".52" stop-color="#6c6c6c"/><stop offset="1" stop-color="#4b4b4b"/></radialGradient><style>.cls-1{fill:#fcc875;}.cls-2,.cls-4,.cls-5{fill:url(#arrowT1HeadColor);}.cls-2,.cls-3,.cls-4,.cls-5{stroke:#333;stroke-miterlimit:10;}.cls-2,.cls-3{stroke-width:8px;}.cls-3{fill:url(#arrowT1HeadMetal);}.cls-4{stroke-width:5px;}.cls-5{stroke-width:10px;}</style></defs><rect class="cls-1" x="73.04" y="83.15" width="84.79" height="4.48" rx="2.24" ry="2.24" transform="translate(-63.4 62.32) rotate(-45)"/><rect class="cls-1" x="72.04" y="152.15" width="84.79" height="4.48" rx="2.24" ry="2.24" transform="translate(105.86 -80.02) rotate(45)"/><rect class="cls-2" x="122.12" y="145.47" width="79.88" height="17.53" rx="8.76" ry="8.76" transform="translate(-76.48 206.69) rotate(-69.21)"/><rect class="cls-2" x="122.12" y="77.47" width="79.88" height="17.53" rx="8.76" ry="8.76" transform="translate(148.34 -140.2) rotate(69.21)"/><rect class="cls-3" x="44.17" y="57.68" width="118" height="37" rx="4.33" ry="4.33"/><rect class="cls-4" x="47.67" y="70.18" width="111" height="11"/><path class="cls-5" d="M82.7,103V138c0,9.12-4.94,15.79-10,13.55L47.9,140.67c-3.57-1.57-6.07-7.15-6.07-13.55V113.88c0-6.4,2.5-12,6.07-13.55L72.67,89.42C77.76,87.18,82.7,93.85,82.7,103Z" transform="translate(-36.83 -44.32)"/><g id="banshee-forged-arrow" opacity="0.82"><path d="M45 66 H145 M45 86 H145" fill="none" stroke="#3b3b42" stroke-width="6" stroke-linecap="round"/><path d="M45 66 H145 M45 86 H145" fill="none" stroke="#9a9aa3" stroke-width="2.2" stroke-linecap="round"/><path d="M82 53 L118 99 M118 53 L82 99" fill="none" stroke="#845e48" stroke-width="3.2" stroke-linecap="round"/><path d="M126 55 L153 76 L126 98" fill="none" stroke="#f5d3a8" stroke-width="3.6" stroke-linecap="round" stroke-linejoin="round"/><path d="M58 56 L72 76 L58 96" fill="none" stroke="#6c4634" stroke-width="4" stroke-linecap="round" stroke-linejoin="round"/><circle cx="60" cy="76" r="5.2" fill="#e3b083" stroke="#2c211c" stroke-width="2"/><circle cx="137" cy="76" r="5.2" fill="#e3b083" stroke="#2c211c" stroke-width="2"/></g><g id="banshee-violet-outline" opacity="0.62"><path d="M42 76 H153" fill="none" stroke="#3f2a21" stroke-width="7" stroke-linecap="round"/></g></svg>