<svg width="120" height="120" viewBox="0 0 120 120" xmlns="http://www.w3.org/2000/svg"><svg x="14" y="14" width="92" height="92" viewBox="0 0 138 138"><defs><radialGradient id="arrowBase__arrowT1BaseColor" cx="34%" cy="28%" r="80%"><stop offset="0" stop-color="#bd8d6d"/><stop offset=".5" stop-color="#8d6750"/><stop offset="1" stop-color="#5b4234"/></radialGradient><radialGradient id="arrowBase__arrowT1BaseMetal" cx="35%" cy="30%" r="76%"><stop offset="0" stop-color="#929292"/><stop offset=".52" stop-color="#6c6c6c"/><stop offset="1" stop-color="#4b4b4b"/></radialGradient><style>.arrowBase__cls-1{fill:url(#arrowBase__arrowT1BaseColor);stroke-width:10px;}.arrowBase__cls-1,.arrowBase__cls-2{stroke:#333;stroke-miterlimit:10;}.arrowBase__cls-2{fill:url(#arrowBase__arrowT1BaseMetal);stroke-width:8px;}</style></defs><rect class="arrowBase__cls-1" x="58" y="57" width="128" height="128" rx="10.5" ry="10.5" transform="translate(190 -53) rotate(90)"/><circle class="arrowBase__cls-2" cx="122.52" cy="121.5" r="53.48" transform="translate(-59.15 184.46) rotate(-86.54)"/></svg><svg x="4" y="10" width="112" height="100" viewBox="0 0 166.17 151.83"><defs><radialGradient id="arrowHead__arrowT1HeadColor" cx="34%" cy="28%" r="80%"><stop offset="0" stop-color="#bd8d6d"/><stop offset=".5" stop-color="#8d6750"/><stop offset="1" stop-color="#5b4234"/></radialGradient><radialGradient id="arrowHead__arrowT1HeadMetal" cx="35%" cy="30%" r="76%"><stop offset="0" stop-color="#929292"/><stop offset=".52" stop-color="#6c6c6c"/><stop offset="1" stop-color="#4b4b4b"/></radialGradient><style>.arrowHead__cls-1{fill:#fcc875;}.arrowHead__cls-2,.arrowHead__cls-4,.arrowHead__cls-5{fill:url(#arrowHead__arrowT1HeadColor);}.arrowHead__cls-2,.arrowHead__cls-3,.arrowHead__cls-4,.arrowHead__cls-5{stroke:#333;stroke-miterlimit:10;}.arrowHead__cls-2,.arrowHead__cls-3{stroke-width:8px;}.arrowHead__cls-3{fill:url(#arrowHead__arrowT1HeadMetal);}.arrowHead__cls-4{stroke-width:5px;}.arrowHead__cls-5{stroke-width:10px;}</style></defs><rect class="arrowHead__cls-1" x="73.04" y="83.15" width="84.79" height="4.48" rx="2.24" ry="2.24" transform="translate(-63.4 62.32) rotate(-45)"/><rect class="arrowHead__cls-1" x="72.04" y="152.15" width="84.79" height="4.48" rx="2.24" ry="2.24" transform="translate(105.86 -80.02) rotate(45)"/><rect class="arrowHead__cls-2" x="122.12" y="145.47" width="79.88" height="17.53" rx="8.76" ry="8.76" transform="translate(-76.48 206.69) rotate(-69.21)"/><rect class="arrowHead__cls-2" x="122.12" y="77.47" width="79.88" height="17.53" rx="8.76" ry="8.76" transform="translate(148.34 -140.2) rotate(69.21)"/><rect class="arrowHead__cls-3" x="44.17" y="57.68" width="118" height="37" rx="4.33" ry="4.33"/><rect class="arrowHead__cls-4" x="47.67" y="70.18" width="111" height="11"/><path class="arrowHead__cls-5" d="M82.7,103V138c0,9.12-4.94,15.79-10,13.55L47.9,140.67c-3.57-1.57-6.07-7.15-6.07-13.55V113.88c0-6.4,2.5-12,6.07-13.55L72.67,89.42C77.76,87.18,82.7,93.85,82.7,103Z" transform="translate(-36.83 -44.32)"/></svg></svg>
