<svg width="120" height="120" viewBox="0 0 120 120" xmlns="http://www.w3.org/2000/svg"><svg x="24" y="24" width="72" height="72" viewBox="0 0 12.7 12.7"><g stroke-linejoin="round"><g stroke="#333" transform="translate(-13.5 25.68)"><path fill="#87694d" stroke-width="1.86" d="M16.02-24.75h7.67l.53 1.06 1.06.53v7.67l-1.06.53-.53 1.06h-7.67l-.53-1.06-1.06-.53v-7.67l1.06-.53z"/><rect width="5.53" height="5.53" x="24.94" y="-2.39" fill="#767164" stroke-linecap="round" stroke-width=".68" rx=".86" ry=".86" transform="rotate(-45)"/><rect width="4.3" height="4.3" x="25.55" y="-1.78" fill="#646055" stroke="none" rx=".86" ry=".86" transform="rotate(-45)"/></g><path fill="#ccc" stroke="#333" stroke-linecap="round" stroke-width=".55" d="M6.35 8.8c-.2.01-.86-1.24-1-1.39-.16-.15-1.45-.85-1.46-1.06 0-.2 1.26-.86 1.4-1 .15-.16.85-1.45 1.06-1.46.2 0 .86 1.25 1 1.4.16.15 1.45.84 1.46 1.06 0 .2-1.25.86-1.4 1-.15.16-.84 1.45-1.06 1.46Z"/><path fill="#969696" d="M6.35 6.35h2.1l-1.21.82-.89 1.29Z"/><path fill="#f0f0f0" d="M6.36 6.36H4.23l1.28-.86.84-1.26Z"/></g></svg></svg>