<svg xmlns="http://www.w3.org/2000/svg" xml:space="preserve" width="48" height="48" viewBox="0 0 12.7 12.7"><g stroke-linejoin="round"><path fill="#767164" stroke="#333" stroke-width="1.86" d="M1.42.56h9.86l.38.75.75.38v9.32l-.75.38-.38.75H1.42l-.38-.75-.75-.38V1.69l.75-.38z"/><rect width="5.53" height="5.53" x="-2.77" y="6.21" fill="#a96b52" stroke="#333" stroke-linecap="round" stroke-width=".68" rx=".86" ry=".86" transform="rotate(-45)"/><rect width="4.3" height="4.3" x="-2.15" y="6.83" fill="#905b46" rx=".86" ry=".86" transform="rotate(-45)"/><path fill="#ccc" stroke="#333" stroke-linecap="round" stroke-width=".55" d="M6.35 8.8c-.2.01-.86-1.24-1-1.39-.16-.15-1.45-.84-1.46-1.06 0-.2 1.25-.86 1.4-1 .15-.16.84-1.45 1.06-1.46.2 0 .86 1.25 1 1.4.16.15 1.45.84 1.46 1.06 0 .2-1.25.86-1.4 1-.15.16-.84 1.45-1.06 1.46z"/><path fill="#969696" d="M6.35 6.35h2.1l-1.22.82-.88 1.29z"/><path fill="#f0f0f0" d="M6.36 6.36H4.23l1.28-.86.84-1.25z"/></g></svg>