<svg width="120" height="120" viewBox="0 0 120 120" xmlns="http://www.w3.org/2000/svg"><svg x="14" y="14" width="92" height="92" viewBox="0 0 138 138"><defs><radialGradient id="mineBase__goldMineT1BaseColor" cx="34%" cy="28%" r="80%"><stop offset="0" stop-color="#997967"/><stop offset=".52" stop-color="#845e48"/><stop offset="1" stop-color="#715240"/></radialGradient><radialGradient id="mineBase__goldMineT1BaseMetal" cx="34%" cy="28%" r="80%"><stop offset="0" stop-color="#7e7e7e"/><stop offset=".52" stop-color="#666666"/><stop offset="1" stop-color="#585858"/></radialGradient><style>.mineBase__cls-1{fill:url(#mineBase__goldMineT1BaseColor);stroke-width:10px;}.mineBase__cls-1,.mineBase__cls-2{stroke:#333;stroke-miterlimit:10;}.mineBase__cls-2{fill:url(#mineBase__goldMineT1BaseMetal);stroke-width:8px;}</style></defs><rect class="mineBase__cls-1" x="-1" width="128" height="128" rx="10.5" ry="10.5" transform="translate(133 6) rotate(90)"/><circle class="mineBase__cls-2" cx="63.52" cy="64.5" r="53.48" transform="translate(1.31 129.01) rotate(-86.54)"/></svg><svg x="20" y="20" width="80" height="80" viewBox="0 0 99 99"><defs><radialGradient id="mineHead__goldMineT1Ore" cx="34%" cy="28%" r="80%"><stop offset="0" stop-color="#ffa23e"/><stop offset=".52" stop-color="#ff931e"/><stop offset="1" stop-color="#d67d1d"/></radialGradient><radialGradient id="mineHead__goldMineT1Ring" cx="34%" cy="28%" r="80%"><stop offset="0" stop-color="#997967"/><stop offset=".52" stop-color="#845e48"/><stop offset="1" stop-color="#715240"/></radialGradient><radialGradient id="mineHead__goldMineT1Center" cx="34%" cy="28%" r="80%"><stop offset="0" stop-color="#7e7e7e"/><stop offset=".52" stop-color="#666666"/><stop offset="1" stop-color="#585858"/></radialGradient><style>.mineHead__cls-1{fill:url(#mineHead__goldMineT1Ore);stroke-width:4px;}.mineHead__cls-1,.mineHead__cls-2,.mineHead__cls-3{stroke:#333;stroke-miterlimit:10;}.mineHead__cls-2{fill:url(#mineHead__goldMineT1Ring);}.mineHead__cls-2,.mineHead__cls-3{stroke-width:8px;}.mineHead__cls-3{fill:#666666;}</style></defs><g id="mineHead__Layer_1" data-name="Layer 1"><circle class="mineHead__cls-1" cx="50" cy="87" r="10"/><circle class="mineHead__cls-1" cx="50" cy="12" r="10"/><circle class="mineHead__cls-1" cx="12" cy="52" r="10"/><circle class="mineHead__cls-1" cx="87" cy="52" r="10"/><circle class="mineHead__cls-1" cx="90.87" cy="90.16" r="10" transform="translate(-51.64 76.16) rotate(-45)"/><circle class="mineHead__cls-1" cx="37.84" cy="37.13" r="10" transform="translate(-29.67 23.13) rotate(-45)"/><circle class="mineHead__cls-1" cx="39.25" cy="92.28" r="10" transform="translate(-68.26 40.28) rotate(-45)"/><circle class="mineHead__cls-1" cx="92.28" cy="39.25" r="10" transform="translate(-15.23 62.25) rotate(-45)"/></g><g id="mineHead__Layer_3" data-name="Layer 3"><circle class="mineHead__cls-2" cx="49.5" cy="49.5" r="30.05"/><circle class="mineHead__cls-3" cx="49.5" cy="49.5" r="18.87"/></g></svg></svg>
