<?xml version="1.0" encoding="utf-8"?>
<svg width="180" height="52" viewBox="-85 -11 308 88" xmlns="http://www.w3.org/2000/svg">
  <defs>
    <linearGradient id="spaceBubbleWeaponGlass" x1="0%" y1="0%" x2="100%" y2="100%">
      <stop offset="0%" stop-color="#f4ecff" stop-opacity="0.82"/>
      <stop offset="32%" stop-color="#9aa3bf" stop-opacity="0.64"/>
      <stop offset="65%" stop-color="#322b43" stop-opacity="0.86"/>
      <stop offset="100%" stop-color="#080711" stop-opacity="1"/>
    </linearGradient>
    <radialGradient id="spaceBubbleWeaponHot" cx="35%" cy="26%" r="76%">
      <stop offset="0%" stop-color="#defee5" stop-opacity="0.86"/>
      <stop offset="38%" stop-color="#87b991" stop-opacity="0.64"/>
      <stop offset="75%" stop-color="#2c263a" stop-opacity="0.88"/>
      <stop offset="100%" stop-color="#080711" stop-opacity="1"/>
    </radialGradient>

    <style>.cls-1{fill:url(#spaceBubbleWeaponGlass);}.cls-1,.cls-2,.cls-4{stroke:#151622;stroke-miterlimit:10;stroke-width:9px;}.cls-2{fill:url(#spaceBubbleWeaponGlass);}.cls-3{fill:url(#spaceBubbleWeaponHot);opacity:0.7;}.cls-4{fill:#5da56b;}</style>
    <style>.cls-1{fill:url(#spaceBubbleWeaponGlass);}.cls-1,.cls-2,.cls-4{stroke:#151622;stroke-miterlimit:10;stroke-width:9px;}.cls-2{fill:url(#spaceBubbleWeaponGlass);}.cls-3{fill:url(#spaceBubbleWeaponHot);}.cls-4{fill:#5da56b;}</style>
    <style>.cls-1{fill:url(#spaceBubbleWeaponGlass);}.cls-1,.cls-3,.cls-4{stroke:#151622;stroke-miterlimit:10;stroke-width:9px;}.cls-2{fill:url(#spaceBubbleWeaponGlass);opacity:0.7;}.cls-3{fill:url(#spaceBubbleWeaponHot);}.cls-4{fill:#5da56b;}</style>
    <linearGradient id="spaceAxeGradient" x1="0%" y1="0%" x2="100%" y2="100%">
      <stop offset="0%" stop-color="#595471"/>
      <stop offset="35%" stop-color="#b9b1c9"/>
      <stop offset="48%" stop-color="#817a99"/>
      <stop offset="58%" stop-color="#514b68"/>
      <stop offset="100%" stop-color="#1a1a28"/>
    </linearGradient>
    <filter id="softSpaceAxeGlint" x="-25%" y="-25%" width="150%" height="150%">
      <feGaussianBlur stdDeviation="1" result="blur"/>
      <feFlood flood-color="#ebe7f2" flood-opacity=".42" result="color"/>
      <feComposite in="color" in2="blur" operator="in" result="glow"/>
      <feMerge><feMergeNode in="glow"/><feMergeNode in="SourceGraphic"/></feMerge>
    </filter>
    <filter id="spaceAxeGlow" x="-45%" y="-45%" width="190%" height="190%">
      <feGaussianBlur stdDeviation="2.4" result="blur"/>
      <feFlood flood-color="#ebe7f2" flood-opacity=".34" result="color"/>
      <feComposite in="color" in2="blur" operator="in" result="glow"/>
      <feMerge><feMergeNode in="glow"/><feMergeNode in="SourceGraphic"/></feMerge>
    </filter>
  <style>.green-hand-glint{fill:#eee9f8;opacity:.13;stroke-width:0;}.axe-space-glint{fill:none;stroke:#ebe7f2;stroke-width:4.2;stroke-linecap:round;stroke-linejoin:round;opacity:.6;}.axe-shadow-glint{fill:none;stroke:#171521;stroke-width:3.5;stroke-linecap:round;stroke-linejoin:round;opacity:.55;}</style></defs>
  <g id="weapons" transform="matrix(1, 0, 0, 1, -0.177919, -7.342737)">
    <path class="cls-1" filter="url(#spaceAxeGlow)" style="fill:url(#spaceAxeGradient)" d="M137.47,32.41H105.92a3.91,3.91,0,0,1-3.75-2.8L94.05,2.27a3.91,3.91,0,0,1,3.75-5h47.77a3.91,3.91,0,0,1,3.75,5l-8.11,27.34A3.91,3.91,0,0,1,137.47,32.41Z" transform="translate(39.65 6.76)"/>
    <path class="cls-1" filter="url(#spaceAxeGlow)" style="fill:url(#spaceAxeGradient)" d="M137.47,34.24H105.92a3.91,3.91,0,0,0-3.75,2.8L94.05,64.38a3.91,3.91,0,0,0,3.75,5h47.77a3.91,3.91,0,0,0,3.75-5L141.22,37A3.91,3.91,0,0,0,137.47,34.24Z" transform="translate(39.65 6.76)"/>
    <rect class="cls-2" x="137.43" y="69.01" width="47.83" height="4.35" style="stroke-width: 0;"/>
    <rect class="cls-3" x="4" y="35.13" width="140.41" height="9.15" rx="4.03" ry="4.03" style="opacity: 1;"/>
    <path class="cls-1" filter="url(#spaceAxeGlow)" style="fill:url(#spaceAxeGradient)" d="M149.79,26h-49a4.26,4.26,0,0,0-1.16.16L89.56,29a4.26,4.26,0,0,0,0,8.19l10.09,2.86a4.26,4.26,0,0,0,1.16.16h49a4.26,4.26,0,0,0,1.16-.16L161,37.22A4.26,4.26,0,0,0,161,29L151,26.16A4.26,4.26,0,0,0,149.79,26Z" transform="translate(39.65 6.76)"/>
    <path class="axe-space-glint" filter="url(#softSpaceAxeGlint)" d="M144 12 L169 13"/>
    <path class="axe-space-glint" filter="url(#softSpaceAxeGlint)" d="M143 58 L171 56"/>
    <path class="axe-shadow-glint" d="M178 17 L190 24"/>
    <path class="axe-shadow-glint" d="M178 52 L190 45"/>
    <circle class="cls-4" cx="-3.67" cy="43.22" r="17.31" transform="translate(-6.94 43.7) rotate(-86.54)"/>
    <circle class="cls-4" cx="62.7" cy="43.03" r="17.31" transform="translate(55.62 109.77) rotate(-86.54)"/>
  </g>

  
  <g class="space-bubble-weapon-detail" opacity="0.82">
    <ellipse cx="81.32" cy="25.96" rx="70.84" ry="17.60" fill="#f3ecff" opacity="0.16"/>
    <path d="M42.36 18.04 C75.65 7.48 119.57 16.28 129.49 24.20" fill="none" stroke="#defee5" stroke-width="4.31" stroke-linecap="round" opacity="0.62"/>
    <circle cx="111.78" cy="16.28" r="3.08" fill="#ffffff" opacity="0.55"/>
    <circle cx="61.48" cy="33.35" r="2.16" fill="#d7e8ff" opacity="0.38"/>
  </g>
</svg>