<?xml version="1.0" encoding="utf-8"?>
<svg width="180" height="52" viewBox="-85 -11 308 88" xmlns="http://www.w3.org/2000/svg">
  <defs>
    <linearGradient id="spaceBubbleWeaponGlass" x1="0%" y1="0%" x2="100%" y2="100%">
      <stop offset="0%" stop-color="#f4ecff" stop-opacity="0.82"/>
      <stop offset="32%" stop-color="#9aa3bf" stop-opacity="0.64"/>
      <stop offset="65%" stop-color="#322b43" stop-opacity="0.86"/>
      <stop offset="100%" stop-color="#080711" stop-opacity="1"/>
    </linearGradient>
    <radialGradient id="spaceBubbleWeaponHot" cx="35%" cy="26%" r="76%">
      <stop offset="0%" stop-color="#defee5" stop-opacity="0.86"/>
      <stop offset="38%" stop-color="#87b991" stop-opacity="0.64"/>
      <stop offset="75%" stop-color="#2c263a" stop-opacity="0.88"/>
      <stop offset="100%" stop-color="#080711" stop-opacity="1"/>
    </radialGradient>

    <style>.cls-1{fill:url(#spaceBubbleWeaponGlass);}.cls-1,.cls-2,.cls-4{stroke:#151622;stroke-miterlimit:10;stroke-width:9px;}.cls-2{fill:url(#spaceBubbleWeaponGlass);}.cls-3{fill:url(#spaceBubbleWeaponHot);opacity:0.7;}.cls-4{fill:#5da56b;}</style>
  <style>.green-hand-glint{fill:#22c643;opacity:.18;stroke-width:0;}</style></defs>
  <g id="weapons">
    <rect class="cls-1" x="4" y="27.68" width="140.41" height="9.15" rx="4.03" ry="4.03"/>
    <path class="cls-2" d="M143.47,37.41H111.92a3.91,3.91,0,0,1-3.75-2.8L100.05,7.27a3.91,3.91,0,0,1,3.75-5h47.77a3.91,3.91,0,0,1,3.75,5l-8.11,27.34A3.91,3.91,0,0,1,143.47,37.41Z" transform="translate(31.61 1.76)"/>
    <rect class="cls-3" x="135.39" y="6.81" width="47.83" height="4.35"/>
    <circle class="cls-4" cx="4.37" cy="40.77" r="17.31" transform="translate(-4.98 44.43) rotate(-86.54)"/>
    <circle class="cls-4" cx="70.74" cy="40.58" r="17.31" transform="translate(57.58 110.5) rotate(-86.54)"/>
  </g>

  
  <g class="space-bubble-weapon-detail" opacity="0.82">
    <ellipse cx="81.32" cy="25.96" rx="70.84" ry="17.60" fill="#f3ecff" opacity="0.16"/>
    <path d="M42.36 18.04 C75.65 7.48 119.57 16.28 129.49 24.20" fill="none" stroke="#defee5" stroke-width="4.31" stroke-linecap="round" opacity="0.62"/>
    <circle cx="111.78" cy="16.28" r="3.08" fill="#ffffff" opacity="0.55"/>
    <circle cx="61.48" cy="33.35" r="2.16" fill="#d7e8ff" opacity="0.38"/>
  </g>
</svg>