<svg width="21" height="45" viewBox="15.984 -15.821 28 60" xmlns="http://www.w3.org/2000/svg"><defs><linearGradient id="arrowProjectileShaftT2" x1="0" y1="0" x2="0" y2="1"><stop offset="0" stop-color="#c3b7ae"/><stop offset=".45" stop-color="#979797" stop-opacity=".38"/><stop offset="1" stop-color="#5f5e63"/></linearGradient><radialGradient id="arrowProjectileTipMetalT2" cx="35%" cy="30%" r="76%"><stop offset="0" stop-color="#b9b9b9"/><stop offset=".5" stop-color="#979797" stop-opacity=".42"/><stop offset="1" stop-color="#58585d"/></radialGradient><radialGradient id="arrowProjectileTipTintT2" cx="58%" cy="18%" r="82%"><stop offset="0" stop-color="#dddddd"/><stop offset=".58" stop-color="#979797"/><stop offset="1" stop-color="#666666"/></radialGradient><filter id="arrowProjectileGlowT2" x="-85%" y="-85%" width="270%" height="270%"><feDropShadow dx="0" dy="0" stdDeviation="2" flood-color="#979797" flood-opacity="1"/><feDropShadow dx="0" dy="0" stdDeviation="4.2" flood-color="#979797" flood-opacity="0.72"/><feDropShadow dx="0" dy="0" stdDeviation="7" flood-color="#979797" flood-opacity="0.34"/></filter><style>.shaft{fill:url(#arrowProjectileShaftT2);}.shaft,.tip,.mid-tint,.tip-tint{stroke:#333;stroke-miterlimit:10;}.shaft,.tip{stroke-width:4px;}.mid-tint{fill:url(#arrowProjectileTipTintT2);stroke-width:2.2px;opacity:.42;}.tip{fill:url(#arrowProjectileTipMetalT2);}.tip-tint{fill:url(#arrowProjectileTipTintT2);stroke-width:2.8px;}</style></defs><rect class="shaft" x="4" y="6.579" width="25" height="9.19" rx="0.1" ry="0.1" transform="matrix(0, -1, 1, 0, 18.876323, 42.006023)"/><rect class="mid-tint" x="8.8" y="7.95" width="13.5" height="6.45" rx="0.1" ry="0.1" transform="matrix(0, -1, 1, 0, 18.876323, 42.006023)"/><path class="tip" d="M 39 -2.2 L 23.31 -8.71 C 20.785 -9.757 18.005 -7.904 18 -5.17 L 18 7.83 C 18.005 10.564 20.785 12.417 23.31 11.37 L 39 4.88 C 41.725 3.735 42.188 0.069 39.834 -1.719 C 39.577 -1.913 39.297 -2.075 39 -2.2 Z" transform="matrix(0, -1, 1, 0, 28.764, 31.424)"/><path class="tip-tint" filter="url(#arrowProjectileGlowT2)" d="M 39 -2.2 L 30 -5.95 C 28.5 -6.57 27 -5.45 27 -3.84 L 27 6.5 C 27 8.1 28.5 9.22 30 8.6 L 39 4.88 C 41.73 3.73 42.19 .07 39.83 -1.72 C 39.58 -1.91 39.3 -2.08 39 -2.2 Z" transform="matrix(0, -1, 1, 0, 28.764, 31.424)"/></svg>