<?xml version="1.0" encoding="utf-8"?>
<svg width="150" height="44" viewBox="0 0 240 70" xmlns="http://www.w3.org/2000/svg">
  <defs>
    <linearGradient id="spaceBubbleWeaponGlass" x1="0%" y1="0%" x2="100%" y2="100%">
      <stop offset="0%" stop-color="#f4ecff" stop-opacity="0.82"/>
      <stop offset="32%" stop-color="#9aa3bf" stop-opacity="0.64"/>
      <stop offset="65%" stop-color="#322b43" stop-opacity="0.86"/>
      <stop offset="100%" stop-color="#080711" stop-opacity="1"/>
    </linearGradient>
    <radialGradient id="spaceBubbleWeaponHot" cx="35%" cy="26%" r="76%">
      <stop offset="0%" stop-color="#fef9e1" stop-opacity="0.86"/>
      <stop offset="38%" stop-color="#beb594" stop-opacity="0.64"/>
      <stop offset="75%" stop-color="#2c263a" stop-opacity="0.88"/>
      <stop offset="100%" stop-color="#080711" stop-opacity="1"/>
    </radialGradient>
<linearGradient id="bloodAxeGradient" x1="0%" y1="0%" x2="100%" y2="100%"><stop offset="0%" stop-color="#595471"/><stop offset="45%" stop-color="#b9b1c9"/><stop offset="100%" stop-color="#1a1a28"/></linearGradient>
    <style>.cls-1{fill:url(#spaceBubbleWeaponGlass);}.cls-1,.cls-2,.cls-3{stroke:#151622;stroke-miterlimit:10;stroke-width:8px;}.cls-2{fill:url(#spaceBubbleWeaponGlass);}.cls-3{fill:url(#spaceBubbleWeaponHot);}</style>
  </defs>
  <g id="weapons" transform="matrix(1, 0, 0, 1, 75.822281, 2.252235)">
    <rect class="cls-1" x="56.51" y="31.42" width="50.55" height="20.55" rx="4.33" ry="4.33" transform="translate(55.28 111.07) rotate(-90)"/>
    <rect class="cls-2" x="4" y="23.75" width="91.02" height="11.26" rx="4.03" ry="4.03"/>
    <path class="cls-1" style="fill:url(#spaceBubbleWeaponGlass)" d="M126.41,30.82H97.48a4.26,4.26,0,0,0-2.46.78l-9.78,6.9a4.26,4.26,0,0,0,0,7L95,52.36a4.26,4.26,0,0,0,2.46.78h28.92a4.26,4.26,0,0,0,2.46-.78l9.78-6.9a4.26,4.26,0,0,0,0-7l-9.78-6.9A4.26,4.26,0,0,0,126.41,30.82Z" transform="translate(15.19 -12.41)"/>
    <circle class="cls-3" cx="3.66" cy="46.29" r="13.25" transform="translate(-27.58 34.74) rotate(-86.54)"/>
    <circle class="cls-3" cx="54.47" cy="46.14" r="13.25" transform="translate(20.31 85.32) rotate(-86.54)"/>
  </g>

  
  <g class="space-bubble-weapon-detail" opacity="0.82">
    <ellipse cx="129.60" cy="29.40" rx="55.20" ry="14.00" fill="#f3ecff" opacity="0.16"/>
    <path d="M99.24 23.10 C125.18 14.70 159.41 21.70 167.14 28.00" fill="none" stroke="#fef9e1" stroke-width="3.36" stroke-linecap="round" opacity="0.62"/>
    <circle cx="153.34" cy="21.70" r="2.40" fill="#ffffff" opacity="0.55"/>
    <circle cx="114.14" cy="35.28" r="1.68" fill="#d7e8ff" opacity="0.38"/>
  </g>
</svg>